Coordinates
version=1
nRows=8
nColumns=27
inDegrees=yes

Units are S.I. units (second, meters, Newtons, ...)
If the header above contains a line with 'inDegrees', this indicates whether rotational values are in degrees (yes) or radians (no).

endheader
time	pelvis_rotation	pelvis_tilt	pelvis_list	pelvis_tx	pelvis_ty	pelvis_tz	hip_flexion_r	hip_adduction_r	hip_rotation_r	knee_angle_r	knee_rotation_r	knee_adduction_r	knee_angle_r_beta	ankle_angle_r	subtalar_angle_r	mtp_angle_r	hip_flexion_l	hip_adduction_l	hip_rotation_l	knee_angle_l	knee_rotation_l	knee_adduction_l	knee_angle_l_beta	ankle_angle_l	subtalar_angle_l	mtp_angle_l
      4.38000000	      5.12788463	    -33.75872745	      1.99857922	     -0.00952227	      0.41898100	     -1.11494122	    136.24771940	    -46.59776144	     29.01493745	    109.75101612	      0.00000000	      0.00000000	      1.91551659	     14.48322236	      0.00000000	      0.00000000	    135.53987437	    -41.53806436	     24.19164131	    103.38798573	      0.00000000	      0.00000000	      1.80446076	      1.28592018	      0.00000000	      0.00000000
      4.38500000	      5.50867136	    -33.90303809	      2.11527636	     -0.00894981	      0.41809644	     -1.11512493	    136.80108611	    -46.94798255	     29.46321162	    109.89025780	      0.00000000	      0.00000000	      1.91794681	     14.46877323	      0.00000000	      0.00000000	    135.74963079	    -41.25577727	     24.09275003	    103.53080781	      0.00000000	      0.00000000	      1.80695347	      1.22295550	      0.00000000	      0.00000000
      4.39000000	      5.49110430	    -33.84999928	      2.05576728	     -0.00869415	      0.41751813	     -1.11521690	    136.72809884	    -46.92256479	     29.48196639	    109.95455479	      0.00000000	      0.00000000	      1.91906901	     14.57289866	      0.00000000	      0.00000000	    135.86710351	    -41.24349451	     24.23472540	    103.62763343	      0.00000000	      0.00000000	      1.80864340	      1.21920835	      0.00000000	      0.00000000
      4.39500000	      5.58008113	    -33.80511426	      2.04753317	     -0.00839572	      0.41697792	     -1.11535878	    136.74726983	    -46.98541036	     29.60865161	    110.01806511	      0.00000000	      0.00000000	      1.92017747	     14.64082250	      0.00000000	      0.00000000	    135.91148500	    -41.14967684	     24.28104555	    103.71677286	      0.00000000	      0.00000000	      1.81019918	      1.25265711	      0.00000000	      0.00000000
      4.40000000	      5.66921224	    -33.78560239	      2.15915684	     -0.00813512	      0.41650024	     -1.11544901	    136.88760905	    -46.94013980	     29.85691352	    110.09069685	      0.00000000	      0.00000000	      1.92144514	     14.69270930	      0.00000000	      0.00000000	    135.87406514	    -41.15166622	     24.19785426	    103.78557750	      0.00000000	      0.00000000	      1.81140004	      1.28295309	      0.00000000	      0.00000000
      4.40500000	      5.71800767	    -33.77230224	      2.17331433	     -0.00788122	      0.41603712	     -1.11555976	    136.92362306	    -46.92521517	     29.97809297	    110.15004899	      0.00000000	      0.00000000	      1.92248103	     14.75817587	      0.00000000	      0.00000000	    135.93187339	    -41.11963023	     24.22871525	    103.86191106	      0.00000000	      0.00000000	      1.81273232	      1.31584452	      0.00000000	      0.00000000
      4.41000000	      5.76696163	    -33.75262542	      2.18641326	     -0.00762362	      0.41565151	     -1.11568565	    136.94995312	    -46.92111737	     30.08938937	    110.20017245	      0.00000000	      0.00000000	      1.92335585	     14.79799822	      0.00000000	      0.00000000	    135.96407498	    -41.07739933	     24.25208055	    103.93528973	      0.00000000	      0.00000000	      1.81401301	      1.34395132	      0.00000000	      0.00000000
      4.41500000	      5.81269470	    -33.74971668	      2.19246351	     -0.00740083	      0.41531340	     -1.11580783	    136.96499187	    -46.91479445	     30.17756937	    110.24293537	      0.00000000	      0.00000000	      1.92410220	     14.85536825	      0.00000000	      0.00000000	    136.01050268	    -41.03142989	     24.27869434	    103.99726892	      0.00000000	      0.00000000	      1.81509476	      1.33734903	      0.00000000	      0.00000000
